<svg width="14" height="14" viewBox="0 0 24 24" fill="none" xmlns="http://www.w3.org/2000/svg"><symbol id="icon-Group" viewBox="0 0 34 32"><path fill="#b92f2c" style="fill:var(--color1,#b92f2c)" d="m17.231 31.705-2.412-2.412C5.859 21.367.001 16.025.001 9.478.001 4.136 4.136.001 9.478.001c2.929 0 5.858 1.378 7.754 3.618 1.895-2.24 4.825-3.618 7.754-3.618 5.342 0 9.477 4.135 9.477 9.477 0 6.548-5.858 11.889-14.818 19.815l-2.412 2.412z"/></symbol><symbol id="icon-cross" viewBox="0 0 32 32"><path d="M31.708 25.708 22 16l9.708-9.708a1 1 0 0 0 0-1.414L27.122.292a1 1 0 0 0-1.414-.001L16 9.999 6.292.291a.998.998 0 0 0-1.414.001L.292 4.878a1 1 0 0 0 0 1.414L10 16 .292 25.708a.999.999 0 0 0 0 1.414l4.586 4.586a1 1 0 0 0 1.414 0L16 22l9.708 9.708a1 1 0 0 0 1.414 0l4.586-4.586a.999.999 0 0 0 0-1.414z"/></symbol><symbol id="icon-linkedin-svgrepo-com" viewBox="0 0 32 32"><path fill="#0071bc" style="fill:var(--color1,#0071bc)" d="M27.861 11.856c4.425 3.898 3.731 13.021 3.365 18.221a.71.71 0 0 1-.198.452c-.031.192-.149.378-.353.434-1.841.502-4.221.105-6.08-.229-.192-.031-.267-.18-.26-.328-.012-.025-.012-.056-.019-.081-.118-.112-.192-.285-.167-.514.192-2.076.297-4.152.248-6.241-.025-1.035-.068-2.095-.186-3.124-.26-2.324-2.578-4.834-4.754-2.944-3.062 2.653-1.68 9.563-1.444 13.108.019.242-.143.372-.322.403a.547.547 0 0 1-.322.297c-.998.359-2.188.341-3.241.359-.942.025-1.977.105-2.82-.366-.025-.012-.037-.037-.056-.062a.582.582 0 0 1-.353-.527c-.173-6.446-.806-13.529.502-19.87a.295.295 0 0 1 .167-.223.537.537 0 0 1 .143-.081c1.475-.415 3.458.081 4.964.248.477.05.948.062 1.202.521.093.173.136.397.149.632 2.361-2.38 7.468-2.169 9.836-.087zM8.084 11.205c.081.118.13.254.118.403a123.035 123.035 0 0 0-.322 19.529c.025.421-.359.719-.737.744-1.872.105-3.737.143-5.615.105a.747.747 0 0 1-.737-.737c-.223-6.495-.787-13.79.725-20.161a.396.396 0 0 1 .285-.31c.006-.019.019-.037.031-.056a.313.313 0 0 1 .143-.341c.663-.428 1.611-.198 2.38-.204 1.103-.012 2.213-.043 3.31.019.589.037.725.682.421 1.01zM5.091 8.342c-.229.019-.446 0-.651-.037C1.614 8.77.523 4.463 1.769 2.293 2.488 1.041 3.92.006 5.407 0c1.531 0 2.77 1.339 3.26 2.69.967 2.653-.694 5.46-3.576 5.652z"/></symbol><symbol id="icon-search-2" viewBox="0 0 32 32"><path stroke-linejoin="round" stroke-linecap="round" stroke-width="2" d="M14.667 25.333c5.891 0 10.667-4.776 10.667-10.667S20.558 3.999 14.667 3.999 4 8.775 4 14.666s4.776 10.667 10.667 10.667zM27.999 27.999l-5.8-5.8"/></symbol></svg>