<svg width="14" height="14" viewBox="0 0 24 24" fill="none" xmlns="http://www.w3.org/2000/svg">
<symbol id="icon-Group" viewBox="0 0 34 32">
<path fill="#b92f2c" style="fill: var(--color1, #b92f2c)" d="M17.231 31.705l-2.412-2.412c-8.96-7.926-14.818-13.268-14.818-19.815 0-5.342 4.135-9.477 9.477-9.477 2.929 0 5.858 1.378 7.754 3.618 1.895-2.24 4.825-3.618 7.754-3.618 5.342 0 9.477 4.135 9.477 9.477 0 6.548-5.858 11.889-14.818 19.815l-2.412 2.412z"></path>
</symbol>
<symbol id="icon-cross" viewBox="0 0 32 32">
<path d="M31.708 25.708c-0-0-0-0-0-0l-9.708-9.708 9.708-9.708c0-0 0-0 0-0 0.105-0.105 0.18-0.227 0.229-0.357 0.133-0.356 0.057-0.771-0.229-1.057l-4.586-4.586c-0.286-0.286-0.702-0.361-1.057-0.229-0.13 0.048-0.252 0.124-0.357 0.228 0 0-0 0-0 0l-9.708 9.708-9.708-9.708c-0-0-0-0-0-0-0.105-0.104-0.227-0.18-0.357-0.228-0.356-0.133-0.771-0.057-1.057 0.229l-4.586 4.586c-0.286 0.286-0.361 0.702-0.229 1.057 0.049 0.13 0.124 0.252 0.229 0.357 0 0 0 0 0 0l9.708 9.708-9.708 9.708c-0 0-0 0-0 0-0.104 0.105-0.18 0.227-0.229 0.357-0.133 0.355-0.057 0.771 0.229 1.057l4.586 4.586c0.286 0.286 0.702 0.361 1.057 0.229 0.13-0.049 0.252-0.124 0.357-0.229 0-0 0-0 0-0l9.708-9.708 9.708 9.708c0 0 0 0 0 0 0.105 0.105 0.227 0.18 0.357 0.229 0.356 0.133 0.771 0.057 1.057-0.229l4.586-4.586c0.286-0.286 0.362-0.702 0.229-1.057-0.049-0.13-0.124-0.252-0.229-0.357z"></path>
</symbol>
<symbol id="icon-linkedin-svgrepo-com" viewBox="0 0 32 32">
<path fill="#0071bc" style="fill: var(--color1, #0071bc)" d="M27.861 11.856c4.425 3.898 3.731 13.021 3.365 18.221-0.012 0.192-0.093 0.341-0.198 0.452-0.031 0.192-0.149 0.378-0.353 0.434-1.841 0.502-4.221 0.105-6.080-0.229-0.192-0.031-0.267-0.18-0.26-0.328-0.012-0.025-0.012-0.056-0.019-0.081-0.118-0.112-0.192-0.285-0.167-0.514 0.192-2.076 0.297-4.152 0.248-6.241-0.025-1.035-0.068-2.095-0.186-3.124-0.26-2.324-2.578-4.834-4.754-2.944-3.062 2.653-1.68 9.563-1.444 13.108 0.019 0.242-0.143 0.372-0.322 0.403-0.056 0.124-0.155 0.236-0.322 0.297-0.998 0.359-2.188 0.341-3.241 0.359-0.942 0.025-1.977 0.105-2.82-0.366-0.025-0.012-0.037-0.037-0.056-0.062-0.192-0.087-0.341-0.26-0.353-0.527-0.173-6.446-0.806-13.529 0.502-19.87 0.025-0.118 0.087-0.186 0.167-0.223 0.043-0.031 0.087-0.062 0.143-0.081 1.475-0.415 3.458 0.081 4.964 0.248 0.477 0.050 0.948 0.062 1.202 0.521 0.093 0.173 0.136 0.397 0.149 0.632 2.361-2.38 7.468-2.169 9.836-0.087z"></path>
<path fill="#0071bc" style="fill: var(--color1, #0071bc)" d="M8.084 11.205c0.081 0.118 0.13 0.254 0.118 0.403-0.626 6.501-0.731 13.009-0.322 19.529 0.025 0.421-0.359 0.719-0.737 0.744-1.872 0.105-3.737 0.143-5.615 0.105-0.415-0.006-0.725-0.335-0.737-0.737-0.223-6.495-0.787-13.79 0.725-20.161 0.043-0.18 0.155-0.273 0.285-0.31 0.006-0.019 0.019-0.037 0.031-0.056-0.031-0.13 0.025-0.273 0.143-0.341 0.663-0.428 1.611-0.198 2.38-0.204 1.103-0.012 2.213-0.043 3.31 0.019 0.589 0.037 0.725 0.682 0.421 1.010z"></path>
<path fill="#0071bc" style="fill: var(--color1, #0071bc)" d="M5.091 8.342c-0.229 0.019-0.446 0-0.651-0.037-2.826 0.465-3.917-3.842-2.671-6.012 0.719-1.252 2.151-2.287 3.638-2.293 1.531 0 2.77 1.339 3.26 2.69 0.967 2.653-0.694 5.46-3.576 5.652z"></path>
</symbol>
<symbol id="icon-search-2" viewBox="0 0 32 32">
<path stroke-linejoin="round" stroke-linecap="round" stroke-miterlimit="4" stroke-width="2" d="M14.667 25.333c5.891 0 10.667-4.776 10.667-10.667s-4.776-10.667-10.667-10.667c-5.891 0-10.667 4.776-10.667 10.667s4.776 10.667 10.667 10.667z"></path>
<path stroke-linejoin="round" stroke-linecap="round" stroke-miterlimit="4" stroke-width="2" d="M27.999 27.999l-5.8-5.8"></path>
</symbol>
</svg>
